<?xml version="1.0" encoding="utf-8" standalone="no"?>
<!DOCTYPE svg PUBLIC "-//W3C//DTD SVG 1.1//EN"
  "http://www.w3.org/Graphics/SVG/1.1/DTD/svg11.dtd">
<svg xmlns:xlink="http://www.w3.org/1999/xlink" width="166.788pt" height="62.96pt" viewBox="0 0 166.788 62.96" xmlns="http://www.w3.org/2000/svg" version="1.1">
 <metadata>
  <rdf:RDF xmlns:dc="http://purl.org/dc/elements/1.1/" xmlns:cc="http://creativecommons.org/ns#" xmlns:rdf="http://www.w3.org/1999/02/22-rdf-syntax-ns#">
   <cc:Work>
    <dc:type rdf:resource="http://purl.org/dc/dcmitype/StillImage"/>
    <dc:date>2025-10-13T13:11:07.056729</dc:date>
    <dc:format>image/svg+xml</dc:format>
    <dc:creator>
     <cc:Agent>
      <dc:title>Matplotlib v3.10.6, https://matplotlib.org/</dc:title>
     </cc:Agent>
    </dc:creator>
   </cc:Work>
  </rdf:RDF>
 </metadata>
 <defs>
  <style type="text/css">*{stroke-linejoin: round; stroke-linecap: butt}</style>
 </defs>
 <g id="figure_1">
  <g id="patch_1">
   <path d="M 0 62.96 
L 166.788 62.96 
L 166.788 0 
L 0 0 
z
" style="fill: #ffffff"/>
  </g>
  <g id="axes_1">
   <g id="patch_2">
    <path d="M 92.208 27 
C 93.353677 27 94.452585 26.544818 95.262701 25.734701 
C 96.072818 24.924585 96.528 23.825677 96.528 22.68 
C 96.528 21.534323 96.072818 20.435415 95.262701 19.625299 
C 94.452585 18.815182 93.353677 18.36 92.208 18.36 
C 91.062323 18.36 89.963415 18.815182 89.153299 19.625299 
C 88.343182 20.435415 87.888 21.534323 87.888 22.68 
C 87.888 23.825677 88.343182 24.924585 89.153299 25.734701 
C 89.963415 26.544818 91.062323 27 92.208 27 
L 92.208 27 
z
" clip-path="url(#p28384541bb)" style="fill: none; stroke: #000000; stroke-width: 2; stroke-linejoin: miter"/>
   </g>
   <g id="line2d_1">
    <path d="M 26.508 22.68 
L 64.488 22.68 
M 96.528 22.68 
L 134.508 22.68 
" clip-path="url(#p28384541bb)" style="fill: none; stroke: #000000; stroke-width: 2; stroke-linecap: round"/>
   </g>
   <g id="line2d_2">
    <path d="M 64.488 4.68 
L 87.888 22.68 
L 64.488 40.68 
L 64.488 4.68 
" clip-path="url(#p28384541bb)" style="fill: none; stroke: #000000; stroke-width: 2; stroke-linecap: round"/>
   </g>
   <g id="text_1">
    <!-- INV -->
    <g transform="translate(68.417688 54.917812) scale(0.14 -0.14)">
     <defs>
      <path id="DejaVuSans-49" d="M 628 4666 
L 1259 4666 
L 1259 0 
L 628 0 
L 628 4666 
z
" transform="scale(0.015625)"/>
      <path id="DejaVuSans-4e" d="M 628 4666 
L 1478 4666 
L 3547 763 
L 3547 4666 
L 4159 4666 
L 4159 0 
L 3309 0 
L 1241 3903 
L 1241 0 
L 628 0 
L 628 4666 
z
" transform="scale(0.015625)"/>
      <path id="DejaVuSans-56" d="M 1831 0 
L 50 4666 
L 709 4666 
L 2188 738 
L 3669 4666 
L 4325 4666 
L 2547 0 
L 1831 0 
z
" transform="scale(0.015625)"/>
     </defs>
     <use xlink:href="#DejaVuSans-49"/>
     <use xlink:href="#DejaVuSans-4e" transform="translate(29.492188 0)"/>
     <use xlink:href="#DejaVuSans-56" transform="translate(104.296875 0)"/>
    </g>
   </g>
   <g id="text_2">
    <!-- X -->
    <g transform="translate(4.498 22.943125) scale(0.14 -0.14)">
     <defs>
      <path id="DejaVuSans-58" d="M 403 4666 
L 1081 4666 
L 2241 2931 
L 3406 4666 
L 4084 4666 
L 2584 2425 
L 4184 0 
L 3506 0 
L 2194 1984 
L 872 0 
L 191 0 
L 1856 2491 
L 403 4666 
z
" transform="scale(0.015625)"/>
     </defs>
     <use xlink:href="#DejaVuSans-58"/>
    </g>
   </g>
   <g id="text_3">
    <!-- Z -->
    <g transform="translate(154.128 22.943125) scale(0.14 -0.14)">
     <defs>
      <path id="DejaVuSans-5a" d="M 359 4666 
L 4025 4666 
L 4025 4184 
L 1075 531 
L 4097 531 
L 4097 0 
L 288 0 
L 288 481 
L 3238 4134 
L 359 4134 
L 359 4666 
z
" transform="scale(0.015625)"/>
     </defs>
     <use xlink:href="#DejaVuSans-5a"/>
    </g>
   </g>
  </g>
 </g>
 <defs>
  <clipPath id="p28384541bb">
   <rect x="0" y="0" width="166.788" height="62.96"/>
  </clipPath>
 </defs>
</svg>
