<?xml version="1.0" encoding="utf-8" standalone="no"?>
<!DOCTYPE svg PUBLIC "-//W3C//DTD SVG 1.1//EN"
  "http://www.w3.org/Graphics/SVG/1.1/DTD/svg11.dtd">
<svg xmlns:xlink="http://www.w3.org/1999/xlink" width="105.948pt" height="64.2pt" viewBox="0 0 105.948 64.2" xmlns="http://www.w3.org/2000/svg" version="1.1">
 <metadata>
  <rdf:RDF xmlns:dc="http://purl.org/dc/elements/1.1/" xmlns:cc="http://creativecommons.org/ns#" xmlns:rdf="http://www.w3.org/1999/02/22-rdf-syntax-ns#">
   <cc:Work>
    <dc:type rdf:resource="http://purl.org/dc/dcmitype/StillImage"/>
    <dc:date>2025-10-13T13:11:07.451569</dc:date>
    <dc:format>image/svg+xml</dc:format>
    <dc:creator>
     <cc:Agent>
      <dc:title>Matplotlib v3.10.6, https://matplotlib.org/</dc:title>
     </cc:Agent>
    </dc:creator>
   </cc:Work>
  </rdf:RDF>
 </metadata>
 <defs>
  <style type="text/css">*{stroke-linejoin: round; stroke-linecap: butt}</style>
 </defs>
 <g id="figure_1">
  <g id="patch_1">
   <path d="M 0 64.2 
L 105.948 64.2 
L 105.948 0 
L 0 0 
z
" style="fill: #ffffff"/>
  </g>
  <g id="axes_1">
   <g id="patch_2">
    <path d="M 77.808 28.6 
C 78.953677 28.6 80.052585 28.144818 80.862701 27.334701 
C 81.672818 26.524585 82.128 25.425677 82.128 24.28 
C 82.128 23.134323 81.672818 22.035415 80.862701 21.225299 
C 80.052585 20.415182 78.953677 19.96 77.808 19.96 
C 76.662323 19.96 75.563415 20.415182 74.753299 21.225299 
C 73.943182 22.035415 73.488 23.134323 73.488 24.28 
C 73.488 25.425677 73.943182 26.524585 74.753299 27.334701 
C 75.563415 28.144818 76.662323 28.6 77.808 28.6 
L 77.808 28.6 
z
" clip-path="url(#p4155401aa6)" style="fill: none; stroke: #000000; stroke-width: 2; stroke-linejoin: miter"/>
   </g>
   <g id="line2d_1">
    <path d="M 30.288 41.92 
L 49.830857 41.853878 
L 51.888 41.56 
L 53.945143 41.03102 
L 56.002286 40.266939 
L 58.059429 39.267755 
L 60.116571 38.033469 
L 62.173714 36.564082 
L 64.230857 34.859592 
L 66.802286 32.398367 
L 69.373714 29.569796 
L 71.945143 26.373878 
L 73.488 24.28 
L 73.488 24.28 
L 70.916571 20.863673 
L 68.345143 17.814694 
L 65.773714 15.133061 
L 63.202286 12.818776 
L 61.145143 11.231837 
L 59.088 9.88 
L 57.030857 8.763265 
L 54.973714 7.881633 
L 52.916571 7.235102 
L 50.859429 6.823673 
L 48.802286 6.647347 
L 48.288 6.64 
L 30.288 6.64 
L 30.288 6.64 
L 32.2752 8.8 
L 34.0032 10.96 
L 35.472 13.12 
L 36.6816 15.28 
L 37.632 17.44 
L 38.3232 19.6 
L 38.7552 21.76 
L 38.928 23.92 
L 38.8416 26.08 
L 38.496 28.24 
L 37.8912 30.4 
L 37.0272 32.56 
L 35.904 34.72 
L 34.5216 36.88 
L 32.88 39.04 
L 30.9792 41.2 
L 30.288 41.92 
L 30.288 41.92 
" clip-path="url(#p4155401aa6)" style="fill: none; stroke: #000000; stroke-width: 2; stroke-linecap: round"/>
   </g>
   <g id="line2d_2">
    <path d="M 17.688 33.28 
L 36.6816 33.28 
" clip-path="url(#p4155401aa6)" style="fill: none; stroke: #000000; stroke-width: 2; stroke-linecap: round"/>
   </g>
   <g id="line2d_3">
    <path d="M 17.688 15.28 
L 36.6816 15.28 
" clip-path="url(#p4155401aa6)" style="fill: none; stroke: #000000; stroke-width: 2; stroke-linecap: round"/>
   </g>
   <g id="line2d_4">
    <path d="M 82.128 24.28 
L 86.088 24.28 
" clip-path="url(#p4155401aa6)" style="fill: none; stroke: #000000; stroke-width: 2; stroke-linecap: round"/>
   </g>
   <g id="text_1">
    <!-- NOR -->
    <g transform="translate(36.276906 56.157812) scale(0.14 -0.14)">
     <defs>
      <path id="DejaVuSans-4e" d="M 628 4666 
L 1478 4666 
L 3547 763 
L 3547 4666 
L 4159 4666 
L 4159 0 
L 3309 0 
L 1241 3903 
L 1241 0 
L 628 0 
L 628 4666 
z
" transform="scale(0.015625)"/>
      <path id="DejaVuSans-4f" d="M 2522 4238 
Q 1834 4238 1429 3725 
Q 1025 3213 1025 2328 
Q 1025 1447 1429 934 
Q 1834 422 2522 422 
Q 3209 422 3611 934 
Q 4013 1447 4013 2328 
Q 4013 3213 3611 3725 
Q 3209 4238 2522 4238 
z
M 2522 4750 
Q 3503 4750 4090 4092 
Q 4678 3434 4678 2328 
Q 4678 1225 4090 567 
Q 3503 -91 2522 -91 
Q 1538 -91 948 565 
Q 359 1222 359 2328 
Q 359 3434 948 4092 
Q 1538 4750 2522 4750 
z
" transform="scale(0.015625)"/>
      <path id="DejaVuSans-52" d="M 2841 2188 
Q 3044 2119 3236 1894 
Q 3428 1669 3622 1275 
L 4263 0 
L 3584 0 
L 2988 1197 
Q 2756 1666 2539 1819 
Q 2322 1972 1947 1972 
L 1259 1972 
L 1259 0 
L 628 0 
L 628 4666 
L 2053 4666 
Q 2853 4666 3247 4331 
Q 3641 3997 3641 3322 
Q 3641 2881 3436 2590 
Q 3231 2300 2841 2188 
z
M 1259 4147 
L 1259 2491 
L 2053 2491 
Q 2509 2491 2742 2702 
Q 2975 2913 2975 3322 
Q 2975 3731 2742 3939 
Q 2509 4147 2053 4147 
L 1259 4147 
z
" transform="scale(0.015625)"/>
     </defs>
     <use xlink:href="#DejaVuSans-4e"/>
     <use xlink:href="#DejaVuSans-4f" transform="translate(74.804688 0)"/>
     <use xlink:href="#DejaVuSans-52" transform="translate(153.515625 0)"/>
    </g>
   </g>
   <g id="text_2">
    <!-- X -->
    <g transform="translate(4.498 15.543125) scale(0.14 -0.14)">
     <defs>
      <path id="DejaVuSans-58" d="M 403 4666 
L 1081 4666 
L 2241 2931 
L 3406 4666 
L 4084 4666 
L 2584 2425 
L 4184 0 
L 3506 0 
L 2194 1984 
L 872 0 
L 191 0 
L 1856 2491 
L 403 4666 
z
" transform="scale(0.015625)"/>
     </defs>
     <use xlink:href="#DejaVuSans-58"/>
    </g>
   </g>
   <g id="text_3">
    <!-- Y -->
    <g transform="translate(5.537063 33.543125) scale(0.14 -0.14)">
     <defs>
      <path id="DejaVuSans-59" d="M -13 4666 
L 666 4666 
L 1959 2747 
L 3244 4666 
L 3922 4666 
L 2272 2222 
L 2272 0 
L 1638 0 
L 1638 2222 
L -13 4666 
z
" transform="scale(0.015625)"/>
     </defs>
     <use xlink:href="#DejaVuSans-59"/>
    </g>
   </g>
   <g id="text_4">
    <!-- Z -->
    <g transform="translate(93.288 24.543125) scale(0.14 -0.14)">
     <defs>
      <path id="DejaVuSans-5a" d="M 359 4666 
L 4025 4666 
L 4025 4184 
L 1075 531 
L 4097 531 
L 4097 0 
L 288 0 
L 288 481 
L 3238 4134 
L 359 4134 
L 359 4666 
z
" transform="scale(0.015625)"/>
     </defs>
     <use xlink:href="#DejaVuSans-5a"/>
    </g>
   </g>
  </g>
 </g>
 <defs>
  <clipPath id="p4155401aa6">
   <rect x="0" y="-0" width="105.948" height="64.2"/>
  </clipPath>
 </defs>
</svg>
